<svg width="512" height="512" viewBox="0 0 512 512" fill="none" xmlns="http://www.w3.org/2000/svg">
<path d="M148.6 256.3H251.3L231 275C225.1 280.4 220.6 285.4 216.9 290.6C207.1 304.7 201.2 322 199.3 341.8L198.7 349L191.8 351.2C172.8 357.1 160 374.4 160 394C160 418.8 180.2 439.1 205.1 439.1C229.9 439.1 250.2 418.8 250.2 394C250.2 374.9 237.9 357.9 219.7 351.6L211.5 348.8L212.5 340.2C214.4 323.8 219.4 310.1 227.5 298.1C234 288.7 242.7 280.6 253 274.1C267.8 264.9 283.8 260.5 294.7 258.5C299.5 257.6 304.4 256.9 309.2 256.5H309.4C311.3 256.3 312.6 256.3 313.5 256.3H314.7H430.7L389.8 297.2C387.2 299.8 387.2 303.8 389.8 306.4C392.4 309 396.4 309 399 306.4L451 254.4C452.2 253.2 452.9 251.5 452.9 249.8C452.9 248.1 452.2 246.4 451 245.2L399 193.2C397.8 192 396.1 191.3 394.4 191.3C392.6 191.3 391 191.9 389.8 193.2C388.6 194.4 387.9 196.1 387.9 197.8C387.9 199.5 388.5 201.2 389.8 202.4L430.8 243.4H314.8V243.3C308.8 243.5 298.6 241.9 297.2 241.6C288.1 240.1 274.4 237 261.4 230.7C246.9 223.8 235.3 214.5 227.1 203C219.2 191.8 214.5 179.2 212.6 164.2L211.5 155.5L219.8 152.6C238 146.3 250.3 129.3 250.3 110.2C250.3 85.3996 230 65.0996 205.2 65.0996C180.4 65.0996 160.2 85.2996 160.1 110.2C160.1 129.8 172.9 147.1 191.9 153L198.7 155.2L199.4 162.3C201.2 181.1 207.3 198 217 211.2C220.4 215.8 224.3 220.1 229.1 224.5L249.5 243.2H148.6L146.2 235.8C140.1 217.2 123 204.7 103.6 204.7C78.8 204.7 58.6 224.9 58.5 249.8C58.5 274.6 78.7 294.9 103.6 294.9C123 294.9 140.2 282.4 146.2 263.8L148.6 256.3ZM205.2 426.2C187.5 426.2 173.1 411.7 173.1 394.1C173.1 376.4 187.6 362 205.2 361.9C222.9 361.9 237.3 376.4 237.4 394C237.3 411.7 222.8 426.1 205.2 426.2ZM103.7 282C86 282 71.6 267.5 71.5 249.9C71.5 232.2 86 217.8 103.6 217.7H103.7C121.3 217.7 135.8 232.2 135.8 249.8C135.7 267.5 121.3 282 103.7 282ZM205.2 142.5C187.5 142.5 173.1 128 173 110.4C173 92.6996 187.5 78.2996 205.1 78.1996H205.2C222.8 78.1996 237.3 92.6996 237.3 110.3C237.3 128 222.8 142.5 205.2 142.5Z" fill="#0080A9"/>
</svg>
