<svg xmlns="http://www.w3.org/2000/svg" xmlns:xlink="http://www.w3.org/1999/xlink" width="800" zoomAndPan="magnify" viewBox="0 0 600 599.999999" height="800" preserveAspectRatio="xMidYMid meet" version="1.0"><defs><clipPath id="ca2bbab473"><path d="M 248.328125 18.714844 L 351.671875 18.714844 L 351.671875 122.058594 L 248.328125 122.058594 Z M 248.328125 18.714844 " clip-rule="nonzero"/></clipPath><clipPath id="cea4ef0920"><path d="M 300 18.714844 C 271.460938 18.714844 248.328125 41.851562 248.328125 70.386719 C 248.328125 98.925781 271.460938 122.058594 300 122.058594 C 328.539062 122.058594 351.671875 98.925781 351.671875 70.386719 C 351.671875 41.851562 328.539062 18.714844 300 18.714844 Z M 300 18.714844 " clip-rule="nonzero"/></clipPath><clipPath id="458c02d86b"><path d="M 433.421875 384.363281 L 536.765625 384.363281 L 536.765625 487.707031 L 433.421875 487.707031 Z M 433.421875 384.363281 " clip-rule="nonzero"/></clipPath><clipPath id="4d10fc5ca2"><path d="M 485.09375 384.363281 C 456.558594 384.363281 433.421875 407.5 433.421875 436.035156 C 433.421875 464.574219 456.558594 487.707031 485.09375 487.707031 C 513.632812 487.707031 536.765625 464.574219 536.765625 436.035156 C 536.765625 407.5 513.632812 384.363281 485.09375 384.363281 Z M 485.09375 384.363281 " clip-rule="nonzero"/></clipPath><clipPath id="27410b5e16"><path d="M 121 293 L 258 293 L 258 429 L 121 429 Z M 121 293 " clip-rule="nonzero"/></clipPath><clipPath id="b359b97e59"><path d="M 111.671875 398.746094 L 237.222656 273.199219 L 277.246094 313.226562 L 151.699219 438.773438 Z M 111.671875 398.746094 " clip-rule="nonzero"/></clipPath><clipPath id="6099d4eac6"><path d="M 257.210938 293.234375 L 217.1875 293.234375 L 227.191406 303.238281 L 121.679688 408.753906 L 141.691406 428.765625 L 247.207031 323.253906 L 257.210938 333.257812 Z M 257.210938 293.234375 " clip-rule="nonzero"/></clipPath><clipPath id="3456bf8760"><path d="M 248.328125 470.582031 L 351.671875 470.582031 L 351.671875 573.925781 L 248.328125 573.925781 Z M 248.328125 470.582031 " clip-rule="nonzero"/></clipPath><clipPath id="695f7f6356"><path d="M 300 470.582031 C 271.460938 470.582031 248.328125 493.714844 248.328125 522.253906 C 248.328125 550.792969 271.460938 573.925781 300 573.925781 C 328.539062 573.925781 351.671875 550.792969 351.671875 522.253906 C 351.671875 493.714844 328.539062 470.582031 300 470.582031 Z M 300 470.582031 " clip-rule="nonzero"/></clipPath><clipPath id="d5b0d6220e"><path d="M 63.210938 384.363281 L 166.554688 384.363281 L 166.554688 487.707031 L 63.210938 487.707031 Z M 63.210938 384.363281 " clip-rule="nonzero"/></clipPath><clipPath id="92caf33ee0"><path d="M 114.882812 384.363281 C 86.34375 384.363281 63.210938 407.5 63.210938 436.035156 C 63.210938 464.574219 86.34375 487.707031 114.882812 487.707031 C 143.421875 487.707031 166.554688 464.574219 166.554688 436.035156 C 166.554688 407.5 143.421875 384.363281 114.882812 384.363281 Z M 114.882812 384.363281 " clip-rule="nonzero"/></clipPath><clipPath id="97caa31f25"><path d="M 343 294 L 479 294 L 479 426 L 343 426 Z M 343 294 " clip-rule="nonzero"/></clipPath><clipPath id="1dd8a8de00"><path d="M 449.066406 436.03125 L 324.183594 315.800781 L 363.441406 275.023438 L 488.324219 395.253906 Z M 449.066406 436.03125 " clip-rule="nonzero"/></clipPath><clipPath id="aab0c16714"><path d="M 343.8125 295.414062 L 344.574219 335.433594 L 354.386719 325.238281 L 458.878906 425.835938 L 478.507812 405.449219 L 374.015625 304.847656 L 383.832031 294.652344 Z M 343.8125 295.414062 " clip-rule="nonzero"/></clipPath><clipPath id="d8d9c621b7"><path d="M 268.492188 313.40625 L 327.90625 313.40625 L 327.90625 487.703125 L 268.492188 487.703125 Z M 268.492188 313.40625 " clip-rule="nonzero"/></clipPath><clipPath id="b230834402"><path d="M 298.199219 313.527344 L 268.492188 341.828125 L 282.644531 341.828125 L 282.644531 487.703125 L 313.753906 487.703125 L 313.753906 341.828125 L 327.90625 341.828125 Z M 298.199219 313.527344 " clip-rule="nonzero"/></clipPath><clipPath id="be0af677a2"><path d="M 270.296875 122 L 329.710938 122 L 329.710938 206.863281 L 270.296875 206.863281 Z M 270.296875 122 " clip-rule="nonzero"/></clipPath><clipPath id="abd76bf197"><path d="M 300.003906 122.054688 L 270.296875 150.355469 L 284.449219 150.355469 L 284.449219 206.863281 L 315.5625 206.863281 L 315.5625 150.355469 L 329.710938 150.355469 Z M 300.003906 122.054688 " clip-rule="nonzero"/></clipPath><clipPath id="ad00dce25d"><path d="M 241.050781 195.632812 L 358.949219 195.632812 L 358.949219 313.53125 L 241.050781 313.53125 Z M 241.050781 195.632812 " clip-rule="nonzero"/></clipPath><clipPath id="03c355e29d"><path d="M 300 195.632812 L 358.949219 240.664062 L 336.433594 313.53125 L 263.566406 313.53125 L 241.050781 240.664062 Z M 300 195.632812 " clip-rule="nonzero"/></clipPath></defs><g clip-path="url(#ca2bbab473)"><g clip-path="url(#cea4ef0920)"><path fill="#fe4d4d" d="M 248.328125 18.714844 L 351.671875 18.714844 L 351.671875 122.058594 L 248.328125 122.058594 Z M 248.328125 18.714844 " fill-opacity="1" fill-rule="nonzero"/></g></g><g clip-path="url(#458c02d86b)"><g clip-path="url(#4d10fc5ca2)"><path fill="#fe4d4d" d="M 433.421875 384.363281 L 536.765625 384.363281 L 536.765625 487.707031 L 433.421875 487.707031 Z M 433.421875 384.363281 " fill-opacity="1" fill-rule="nonzero"/></g></g><g clip-path="url(#27410b5e16)"><g clip-path="url(#b359b97e59)"><g clip-path="url(#6099d4eac6)"><path fill="#5ce1e6" d="M 111.671875 398.746094 L 237.222656 273.199219 L 277.246094 313.226562 L 151.699219 438.773438 Z M 111.671875 398.746094 " fill-opacity="1" fill-rule="nonzero"/></g></g></g><g clip-path="url(#3456bf8760)"><g clip-path="url(#695f7f6356)"><path fill="#ffde59" d="M 248.328125 470.582031 L 351.671875 470.582031 L 351.671875 573.925781 L 248.328125 573.925781 Z M 248.328125 470.582031 " fill-opacity="1" fill-rule="nonzero"/></g></g><g clip-path="url(#d5b0d6220e)"><g clip-path="url(#92caf33ee0)"><path fill="#5ce1e6" d="M 63.210938 384.363281 L 166.554688 384.363281 L 166.554688 487.707031 L 63.210938 487.707031 Z M 63.210938 384.363281 " fill-opacity="1" fill-rule="nonzero"/></g></g><g clip-path="url(#97caa31f25)"><g clip-path="url(#1dd8a8de00)"><g clip-path="url(#aab0c16714)"><path fill="#fe4d4d" d="M 449.066406 436.03125 L 324.183594 315.800781 L 363.441406 275.023438 L 488.324219 395.253906 Z M 449.066406 436.03125 " fill-opacity="1" fill-rule="nonzero"/></g></g></g><g clip-path="url(#d8d9c621b7)"><g clip-path="url(#b230834402)"><path fill="#ffde59" d="M 268.492188 487.703125 L 268.492188 313.636719 L 327.90625 313.636719 L 327.90625 487.703125 Z M 268.492188 487.703125 " fill-opacity="1" fill-rule="nonzero"/></g></g><g clip-path="url(#be0af677a2)"><g clip-path="url(#abd76bf197)"><path fill="#545454" d="M 270.296875 206.863281 L 270.296875 122.152344 L 329.710938 122.152344 L 329.710938 206.863281 Z M 270.296875 206.863281 " fill-opacity="1" fill-rule="nonzero"/></g></g><g clip-path="url(#ad00dce25d)"><g clip-path="url(#03c355e29d)"><path fill="#d9d9d9" d="M 241.050781 195.632812 L 358.949219 195.632812 L 358.949219 313.53125 L 241.050781 313.53125 Z M 241.050781 195.632812 " fill-opacity="1" fill-rule="nonzero"/></g></g></svg>