<svg xmlns="http://www.w3.org/2000/svg" xmlns:xlink="http://www.w3.org/1999/xlink" width="800" zoomAndPan="magnify" viewBox="0 0 600 599.999999" height="800" preserveAspectRatio="xMidYMid meet" version="1.0"><defs><clipPath id="7801658048"><path d="M 248.328125 0 L 351.671875 0 L 351.671875 103.34375 L 248.328125 103.34375 Z M 248.328125 0 " clip-rule="nonzero"/></clipPath><clipPath id="1cd484be20"><path d="M 300 0 C 271.460938 0 248.328125 23.132812 248.328125 51.671875 C 248.328125 80.210938 271.460938 103.34375 300 103.34375 C 328.539062 103.34375 351.671875 80.210938 351.671875 51.671875 C 351.671875 23.132812 328.539062 0 300 0 Z M 300 0 " clip-rule="nonzero"/></clipPath><clipPath id="b8f4cf6895"><path d="M 433.421875 384.363281 L 536.765625 384.363281 L 536.765625 487.707031 L 433.421875 487.707031 Z M 433.421875 384.363281 " clip-rule="nonzero"/></clipPath><clipPath id="f9c35dbdda"><path d="M 485.09375 384.363281 C 456.558594 384.363281 433.421875 407.5 433.421875 436.035156 C 433.421875 464.574219 456.558594 487.707031 485.09375 487.707031 C 513.632812 487.707031 536.765625 464.574219 536.765625 436.035156 C 536.765625 407.5 513.632812 384.363281 485.09375 384.363281 Z M 485.09375 384.363281 " clip-rule="nonzero"/></clipPath><clipPath id="5f415e1e4b"><path d="M 121 293 L 258 293 L 258 429 L 121 429 Z M 121 293 " clip-rule="nonzero"/></clipPath><clipPath id="1704216f4d"><path d="M 111.671875 398.746094 L 237.222656 273.199219 L 277.246094 313.226562 L 151.699219 438.773438 Z M 111.671875 398.746094 " clip-rule="nonzero"/></clipPath><clipPath id="11f99c128c"><path d="M 257.210938 293.234375 L 217.1875 293.234375 L 227.191406 303.238281 L 121.679688 408.753906 L 141.691406 428.765625 L 247.207031 323.253906 L 257.210938 333.257812 Z M 257.210938 293.234375 " clip-rule="nonzero"/></clipPath><clipPath id="b857f0a3c3"><path d="M 248.328125 470.582031 L 351.671875 470.582031 L 351.671875 573.925781 L 248.328125 573.925781 Z M 248.328125 470.582031 " clip-rule="nonzero"/></clipPath><clipPath id="9da775ba51"><path d="M 300 470.582031 C 271.460938 470.582031 248.328125 493.714844 248.328125 522.253906 C 248.328125 550.792969 271.460938 573.925781 300 573.925781 C 328.539062 573.925781 351.671875 550.792969 351.671875 522.253906 C 351.671875 493.714844 328.539062 470.582031 300 470.582031 Z M 300 470.582031 " clip-rule="nonzero"/></clipPath><clipPath id="dfccf00492"><path d="M 63.210938 384.363281 L 166.554688 384.363281 L 166.554688 487.707031 L 63.210938 487.707031 Z M 63.210938 384.363281 " clip-rule="nonzero"/></clipPath><clipPath id="15386f2cb8"><path d="M 114.882812 384.363281 C 86.34375 384.363281 63.210938 407.5 63.210938 436.035156 C 63.210938 464.574219 86.34375 487.707031 114.882812 487.707031 C 143.421875 487.707031 166.554688 464.574219 166.554688 436.035156 C 166.554688 407.5 143.421875 384.363281 114.882812 384.363281 Z M 114.882812 384.363281 " clip-rule="nonzero"/></clipPath><clipPath id="740bd58b7c"><path d="M 343 294 L 479 294 L 479 426 L 343 426 Z M 343 294 " clip-rule="nonzero"/></clipPath><clipPath id="db6fdd69d2"><path d="M 449.066406 436.03125 L 324.183594 315.800781 L 363.441406 275.023438 L 488.324219 395.253906 Z M 449.066406 436.03125 " clip-rule="nonzero"/></clipPath><clipPath id="5f83769cf8"><path d="M 343.8125 295.414062 L 344.574219 335.433594 L 354.386719 325.238281 L 458.878906 425.835938 L 478.507812 405.449219 L 374.015625 304.847656 L 383.832031 294.652344 Z M 343.8125 295.414062 " clip-rule="nonzero"/></clipPath><clipPath id="ead04e211e"><path d="M 268.492188 313.40625 L 327.90625 313.40625 L 327.90625 487.703125 L 268.492188 487.703125 Z M 268.492188 313.40625 " clip-rule="nonzero"/></clipPath><clipPath id="e7e13f3f89"><path d="M 298.199219 313.527344 L 268.492188 341.828125 L 282.644531 341.828125 L 282.644531 487.703125 L 313.753906 487.703125 L 313.753906 341.828125 L 327.90625 341.828125 Z M 298.199219 313.527344 " clip-rule="nonzero"/></clipPath><clipPath id="3624e3e56d"><path d="M 270.296875 103.121094 L 329.710938 103.121094 L 329.710938 206.863281 L 270.296875 206.863281 Z M 270.296875 103.121094 " clip-rule="nonzero"/></clipPath><clipPath id="725e9d6ec4"><path d="M 300.003906 103.339844 L 270.296875 131.640625 L 284.449219 131.640625 L 284.449219 206.863281 L 315.5625 206.863281 L 315.5625 131.640625 L 329.710938 131.640625 Z M 300.003906 103.339844 " clip-rule="nonzero"/></clipPath><clipPath id="ea1c0db076"><path d="M 241.050781 195.632812 L 358.949219 195.632812 L 358.949219 313.53125 L 241.050781 313.53125 Z M 241.050781 195.632812 " clip-rule="nonzero"/></clipPath><clipPath id="fdecaecb06"><path d="M 300 195.632812 L 358.949219 240.664062 L 336.433594 313.53125 L 263.566406 313.53125 L 241.050781 240.664062 Z M 300 195.632812 " clip-rule="nonzero"/></clipPath></defs><g clip-path="url(#7801658048)"><g clip-path="url(#1cd484be20)"><path fill="#fe4d4d" d="M 248.328125 0 L 351.671875 0 L 351.671875 103.34375 L 248.328125 103.34375 Z M 248.328125 0 " fill-opacity="1" fill-rule="nonzero"/></g></g><g clip-path="url(#b8f4cf6895)"><g clip-path="url(#f9c35dbdda)"><path fill="#fe4d4d" d="M 433.421875 384.363281 L 536.765625 384.363281 L 536.765625 487.707031 L 433.421875 487.707031 Z M 433.421875 384.363281 " fill-opacity="1" fill-rule="nonzero"/></g></g><g clip-path="url(#5f415e1e4b)"><g clip-path="url(#1704216f4d)"><g clip-path="url(#11f99c128c)"><path fill="#5ce1e6" d="M 111.671875 398.746094 L 237.222656 273.199219 L 277.246094 313.226562 L 151.699219 438.773438 Z M 111.671875 398.746094 " fill-opacity="1" fill-rule="nonzero"/></g></g></g><g clip-path="url(#b857f0a3c3)"><g clip-path="url(#9da775ba51)"><path fill="#ffde59" d="M 248.328125 470.582031 L 351.671875 470.582031 L 351.671875 573.925781 L 248.328125 573.925781 Z M 248.328125 470.582031 " fill-opacity="1" fill-rule="nonzero"/></g></g><g clip-path="url(#dfccf00492)"><g clip-path="url(#15386f2cb8)"><path fill="#5ce1e6" d="M 63.210938 384.363281 L 166.554688 384.363281 L 166.554688 487.707031 L 63.210938 487.707031 Z M 63.210938 384.363281 " fill-opacity="1" fill-rule="nonzero"/></g></g><g clip-path="url(#740bd58b7c)"><g clip-path="url(#db6fdd69d2)"><g clip-path="url(#5f83769cf8)"><path fill="#fe4d4d" d="M 449.066406 436.03125 L 324.183594 315.800781 L 363.441406 275.023438 L 488.324219 395.253906 Z M 449.066406 436.03125 " fill-opacity="1" fill-rule="nonzero"/></g></g></g><g clip-path="url(#ead04e211e)"><g clip-path="url(#e7e13f3f89)"><path fill="#ffde59" d="M 268.492188 487.703125 L 268.492188 313.636719 L 327.90625 313.636719 L 327.90625 487.703125 Z M 268.492188 487.703125 " fill-opacity="1" fill-rule="nonzero"/></g></g><g clip-path="url(#3624e3e56d)"><g clip-path="url(#725e9d6ec4)"><path fill="#ffffff" d="M 270.296875 206.863281 L 270.296875 103.351562 L 329.710938 103.351562 L 329.710938 206.863281 Z M 270.296875 206.863281 " fill-opacity="1" fill-rule="nonzero"/></g></g><g clip-path="url(#ea1c0db076)"><g clip-path="url(#fdecaecb06)"><path fill="#d9d9d9" d="M 241.050781 195.632812 L 358.949219 195.632812 L 358.949219 313.53125 L 241.050781 313.53125 Z M 241.050781 195.632812 " fill-opacity="1" fill-rule="nonzero"/></g></g></svg>